<?xml version="1.0"?>
<svg version="1.1" xmlns="http://www.w3.org/2000/svg" width="120" height="70" style=""><path fill="#1394f0" d="M29.751953125,41.7890625l-1.44921875-4.7578125l-7.287109375,0l-1.44921875,4.7578125l-4.56640625,0l7.0546875-20.0703125l5.181640625,0l7.08203125,20.0703125l-4.56640625,0z M27.291015625,33.4765625q-2.009765625-6.466796875-2.2626953125-7.314453125t-0.3623046875-1.33984375q-0.451171875,1.75-2.583984375,8.654296875l5.208984375,0z M36.24294921875,26.50390625l4.56640625,0l2.884765625,8.599609375q0.369140625,1.12109375,0.505859375,2.65234375l0.08203125,0q0.150390625-1.408203125,0.587890625-2.65234375l2.830078125-8.599609375l4.470703125,0l-6.466796875,17.240234375q-0.888671875,2.392578125-2.5361328125,3.58203125t-3.8486328125,1.189453125q-1.080078125,0-2.119140625-0.232421875l0-3.30859375q0.751953125,0.177734375,1.640625,0.177734375q1.107421875,0,1.9345703125-0.6767578125t1.2919921875-2.0439453125l0.24609375-0.751953125z M64.7866796875,26.216796875q2.70703125,0,4.23828125,2.1123046875t1.53125,5.7900390625q0,3.787109375-1.5791015625,5.865234375t-4.2998046875,2.078125q-2.693359375,0-4.224609375-1.955078125l-0.287109375,0l-0.697265625,1.681640625l-3.185546875,0l0-21.2734375l4.169921875,0l0,4.94921875q0,0.943359375-0.1640625,3.021484375l0.1640625,0q1.462890625-2.26953125,4.333984375-2.26953125z M63.4468359375,29.552734375q-1.544921875,0-2.255859375,0.9501953125t-0.73828125,3.1376953125l0,0.451171875q0,2.4609375,0.7314453125,3.52734375t2.3173828125,1.06640625q1.28515625,0,2.0439453125-1.1826171875t0.7587890625-3.4384765625t-0.765625-3.3837890625t-2.091796875-1.1279296875z M85.63314453125,41.7890625l-0.806640625-2.078125l-0.109375,0q-1.052734375,1.326171875-2.1669921875,1.8388671875t-2.9052734375,0.5126953125q-2.201171875,0-3.4658203125-1.2578125t-1.2646484375-3.58203125q0-2.43359375,1.7021484375-3.5888671875t5.1337890625-1.2783203125l2.65234375-0.08203125l0-0.669921875q0-2.32421875-2.37890625-2.32421875q-1.83203125,0-4.306640625,1.107421875l-1.380859375-2.81640625q2.638671875-1.380859375,5.8515625-1.380859375q3.076171875,0,4.716796875,1.33984375t1.640625,4.07421875l0,10.185546875l-2.912109375,0z M84.40267578125,34.70703125l-1.61328125,0.0546875q-1.818359375,0.0546875-2.70703125,0.65625t-0.888671875,1.83203125q0,1.763671875,2.0234375,1.763671875q1.44921875,0,2.3173828125-0.833984375t0.8681640625-2.21484375l0-1.2578125z M108.8721875,41.7890625l-4.169921875,0l0-8.927734375q0-1.654296875-0.587890625-2.4814453125t-1.873046875-0.8271484375q-1.75,0-2.529296875,1.1689453125t-0.779296875,3.8759765625l0,7.19140625l-4.169921875,0l0-15.28515625l3.185546875,0l0.560546875,1.955078125l0.232421875,0q0.697265625-1.107421875,1.9208984375-1.6748046875t2.7822265625-0.5673828125q2.666015625,0,4.046875,1.4423828125t1.380859375,4.1630859375l0,9.966796875z"/><path fill="#" d=""/></svg>
